BenchTwelve Medium-bold.ufo
<glyph name="dollar" format="1">
  <advance width="2310"/>
  <unicode hex="0024"/>
  <outline>
    <contour>
      <point x="1064" y="-197" type="curve" smooth="yes"/>
      <point x="1101" y="-197" type="line" smooth="yes"/>
      <point x="1120" y="-197"/>
      <point x="1135" y="-175"/>
      <point x="1135" y="-129" type="curve" smooth="yes"/>
      <point x="1135" y="-40" type="line"/>
      <point x="1736" y="-29"/>
      <point x="1987" y="92"/>
      <point x="1987" y="444" type="curve" smooth="yes"/>
      <point x="1987" y="763"/>
      <point x="1676" y="860"/>
      <point x="1135" y="867" type="curve"/>
      <point x="1135" y="1241" type="line"/>
      <point x="1457" y="1230"/>
      <point x="1628" y="1153"/>
      <point x="1745" y="1126" type="curve" smooth="yes"/>
      <point x="1804" y="1122"/>
      <point x="1822" y="1169"/>
      <point x="1828" y="1181" type="curve" smooth="yes"/>
      <point x="1832" y="1187"/>
      <point x="1861" y="1255"/>
      <point x="1861" y="1262" type="curve" smooth="yes"/>
      <point x="1866" y="1293"/>
      <point x="1850" y="1326"/>
      <point x="1822" y="1337" type="curve" smooth="yes"/>
      <point x="1624" y="1421"/>
      <point x="1426" y="1466"/>
      <point x="1135" y="1473" type="curve"/>
      <point x="1135" y="1575" type="line" smooth="yes"/>
      <point x="1135" y="1621"/>
      <point x="1120" y="1642"/>
      <point x="1101" y="1642" type="curve" smooth="yes"/>
      <point x="1064" y="1642" type="line" smooth="yes"/>
      <point x="1045" y="1642"/>
      <point x="1030" y="1621"/>
      <point x="1030" y="1575" type="curve" smooth="yes"/>
      <point x="1030" y="1475" type="line"/>
      <point x="549" y="1474"/>
      <point x="147" y="1414"/>
      <point x="147" y="1024" type="curve" smooth="yes"/>
      <point x="147" y="677"/>
      <point x="492" y="619"/>
      <point x="1030" y="606" type="curve"/>
      <point x="1030" y="194" type="line"/>
      <point x="578" y="202"/>
      <point x="396" y="299"/>
      <point x="266" y="326" type="curve" smooth="yes"/>
      <point x="232" y="330"/>
      <point x="204" y="315"/>
      <point x="188" y="281" type="curve" smooth="yes"/>
      <point x="188" y="281"/>
      <point x="149" y="181"/>
      <point x="149" y="175" type="curve" smooth="yes"/>
      <point x="144" y="144"/>
      <point x="161" y="111"/>
      <point x="190" y="100" type="curve" smooth="yes"/>
      <point x="478" y="-8"/>
      <point x="719" y="-40"/>
      <point x="1030" y="-41" type="curve"/>
      <point x="1030" y="-129" type="line" smooth="yes"/>
      <point x="1030" y="-175"/>
      <point x="1045" y="-197"/>
    </contour>
    <contour>
      <point x="1135" y="194" type="curve"/>
      <point x="1135" y="394" type="line"/>
      <point x="1311" y="393"/>
      <point x="1350" y="572"/>
      <point x="1350" y="507" type="curve" smooth="yes"/>
      <point x="1577" y="437"/>
      <point x="1553" y="368"/>
      <point x="1389" y="306" type="curve" smooth="yes"/>
      <point x="1389" y="238"/>
      <point x="1349" y="198"/>
    </contour>
    <contour>
      <point x="1030" y="870" type="line"/>
      <point x="579" y="883"/>
      <point x="526" y="940"/>
      <point x="526" y="1055" type="curve" smooth="yes"/>
      <point x="526" y="1166"/>
      <point x="648" y="1240"/>
      <point x="1030" y="1243" type="curve"/>
    </contour>
  </outline>
</glyph>
<glyph name="hyphen" format="1">
  <advance width="907"/>
  <unicode hex="002D"/>
  <outline>
    <contour>
      <point x="188" y="464" type="curve" smooth="yes"/>
      <point x="720" y="464" type="line" smooth="yes"/>
      <point x="763" y="464"/>
      <point x="782" y="484"/>
      <point x="782" y="527" type="curve" smooth="yes"/>
      <point x="782" y="624" type="line" smooth="yes"/>
      <point x="782" y="667"/>
      <point x="763" y="687"/>
      <point x="720" y="687" type="curve" smooth="yes"/>
      <point x="188" y="687" type="line" smooth="yes"/>
      <point x="145" y="687"/>
      <point x="124" y="667"/>
      <point x="124" y="624" type="curve" smooth="yes"/>
      <point x="124" y="527" type="line" smooth="yes"/>
      <point x="124" y="484"/>
      <point x="145" y="464"/>
    </contour>
  </outline>
</glyph>
<glyph name="nine" format="1">
  <advance width="2012"/>
  <unicode hex="0039"/>
  <outline>
    <contour>
      <point x="940" y="-41" type="curve" smooth="yes"/>
      <point x="1585" y="-41"/>
      <point x="1872" y="161"/>
      <point x="1872" y="719" type="curve" smooth="yes"/>
      <point x="1872" y="1175"/>
      <point x="1649" y="1473"/>
      <point x="1008" y="1473" type="curve" smooth="yes"/>
      <point x="507" y="1473"/>
      <point x="131" y="1373"/>
      <point x="131" y="1000" type="curve" smooth="yes"/>
      <point x="131" y="736"/>
      <point x="325" y="524"/>
      <point x="947" y="524" type="curve" smooth="yes"/>
      <point x="1102" y="524"/>
      <point x="1275" y="542"/>
      <point x="1478" y="572" type="curve"/>
      <point x="1478" y="523" type="line"/>
      <point x="1479" y="288"/>
      <point x="1324" y="185"/>
      <point x="944" y="184" type="curve" smooth="yes"/>
      <point x="726" y="182"/>
      <point x="440" y="245"/>
      <point x="367" y="274" type="curve" smooth="yes"/>
      <point x="361" y="276"/>
      <point x="355" y="277"/>
      <point x="349" y="277" type="curve" smooth="yes"/>
      <point x="331" y="277"/>
      <point x="317" y="268"/>
      <point x="311" y="246" type="curve" smooth="yes"/>
      <point x="281" y="117" type="line" smooth="yes"/>
      <point x="280" y="112"/>
      <point x="280" y="107"/>
      <point x="280" y="103" type="curve" smooth="yes"/>
      <point x="280" y="81"/>
      <point x="292" y="67"/>
      <point x="315" y="59" type="curve" smooth="yes"/>
      <point x="433" y="16"/>
      <point x="743" y="-41"/>
    </contour>
    <contour>
      <point x="966" y="715" type="curve" smooth="yes"/>
      <point x="586" y="715"/>
      <point x="498" y="824"/>
      <point x="498" y="988" type="curve" smooth="yes"/>
      <point x="498" y="1207"/>
      <point x="673" y="1258"/>
      <point x="1003" y="1258" type="curve" smooth="yes"/>
      <point x="1331" y="1258"/>
      <point x="1485" y="1141"/>
      <point x="1485" y="892" type="curve" smooth="yes"/>
      <point x="1485" y="762" type="line"/>
      <point x="1275" y="730"/>
      <point x="1103" y="715"/>
    </contour>
  </outline>
</glyph>
<glyph name="colon" format="1">
  <advance width="614"/>
  <unicode hex="003A"/>
  <outline>
    <contour>
      <point x="226" y="0" type="curve" smooth="yes"/>
      <point x="388" y="0" type="line" smooth="yes"/>
      <point x="431" y="0"/>
      <point x="465" y="34"/>
      <point x="465" y="77" type="curve" smooth="yes"/>
      <point x="465" y="237" type="line" smooth="yes"/>
      <point x="465" y="280"/>
      <point x="431" y="314"/>
      <point x="388" y="314" type="curve" smooth="yes"/>
      <point x="226" y="314" type="line" smooth="yes"/>
      <point x="183" y="314"/>
      <point x="149" y="280"/>
      <point x="149" y="237" type="curve" smooth="yes"/>
      <point x="149" y="77" type="line" smooth="yes"/>
      <point x="149" y="34"/>
      <point x="183" y="0"/>
    </contour>
    <contour>
      <point x="226" y="725" type="curve" smooth="yes"/>
      <point x="388" y="725" type="line" smooth="yes"/>
      <point x="431" y="725"/>
      <point x="465" y="759"/>
      <point x="465" y="802" type="curve" smooth="yes"/>
      <point x="465" y="961" type="line" smooth="yes"/>
      <point x="465" y="1004"/>
      <point x="431" y="1038"/>
      <point x="388" y="1038" type="curve" smooth="yes"/>
      <point x="226" y="1038" type="line" smooth="yes"/>
      <point x="183" y="1038"/>
      <point x="149" y="1004"/>
      <point x="149" y="961" type="curve" smooth="yes"/>
      <point x="149" y="802" type="line" smooth="yes"/>
      <point x="149" y="759"/>
      <point x="183" y="725"/>
    </contour>
  </outline>
</glyph>
<glyph name="greater" format="1">
  <advance width="1237"/>
  <unicode hex="003E"/>
  <outline>
    <contour>
      <point x="180" y="-46" type="curve" smooth="yes"/>
      <point x="189" y="-46"/>
      <point x="201" y="-43"/>
      <point x="213" y="-36" type="curve" smooth="yes"/>
      <point x="1041" y="410" type="line" smooth="yes"/>
      <point x="1081" y="433"/>
      <point x="1108" y="470"/>
      <point x="1108" y="511" type="curve" smooth="yes"/>
      <point x="1108" y="713" type="line" smooth="yes"/>
      <point x="1108" y="755"/>
      <point x="1084" y="801"/>
      <point x="1041" y="821" type="curve" smooth="yes"/>
      <point x="213" y="1248" type="line" smooth="yes"/>
      <point x="197" y="1255"/>
      <point x="186" y="1262"/>
      <point x="176" y="1262" type="curve" smooth="yes"/>
      <point x="158" y="1262"/>
      <point x="146" y="1247"/>
      <point x="146" y="1222" type="curve" smooth="yes"/>
      <point x="146" y="1049" type="line" smooth="yes"/>
      <point x="146" y="1005"/>
      <point x="169" y="972"/>
      <point x="213" y="950" type="curve" smooth="yes"/>
      <point x="863" y="637" type="line" smooth="yes"/>
      <point x="870" y="634"/>
      <point x="873" y="629"/>
      <point x="873" y="624" type="curve" smooth="yes"/>
      <point x="873" y="619"/>
      <point x="870" y="614"/>
      <point x="863" y="610" type="curve" smooth="yes"/>
      <point x="213" y="270" type="line" smooth="yes"/>
      <point x="171" y="248"/>
      <point x="146" y="223"/>
      <point x="146" y="179" type="curve" smooth="yes"/>
      <point x="146" y="-3" type="line" smooth="yes"/>
      <point x="146" y="-31"/>
      <point x="159" y="-46"/>
    </contour>
  </outline>
</glyph>
<glyph name="A" format="1">
  <advance width="2066"/>
  <unicode hex="0041"/>
  <outline>
    <contour>
      <point x="1033" y="1438" type="move" name="top"/>
    </contour>
    <contour>
      <point x="1859" y="10" type="move" name="ogonek"/>
    </contour>
    <contour>
      <point x="150" y="0" type="curve" smooth="yes"/>
      <point x="378" y="0" type="line" smooth="yes"/>
      <point x="422" y="0"/>
      <point x="457" y="22"/>
      <point x="477" y="64" type="curve"/>
      <point x="582" y="279" type="line"/>
      <point x="585" y="285"/>
      <point x="591" y="292"/>
      <point x="600" y="292" type="curve" smooth="yes"/>
      <point x="1419" y="292" type="line" smooth="yes"/>
      <point x="1428" y="292"/>
      <point x="1434" y="286"/>
      <point x="1436" y="280" type="curve"/>
      <point x="1538" y="64" type="line"/>
      <point x="1558" y="21"/>
      <point x="1595" y="0"/>
      <point x="1639" y="0" type="curve" smooth="yes"/>
      <point x="1914" y="0" type="line" smooth="yes"/>
      <point x="1942" y="0"/>
      <point x="1959" y="15"/>
      <point x="1959" y="36" type="curve" smooth="yes"/>
      <point x="1959" y="45"/>
      <point x="1955" y="56"/>
      <point x="1949" y="68" type="curve" smooth="yes"/>
      <point x="1309" y="1370" type="line" smooth="yes"/>
      <point x="1288" y="1411"/>
      <point x="1252" y="1436"/>
      <point x="1210" y="1438" type="curve" smooth="yes"/>
      <point x="885" y="1438" type="line" smooth="yes"/>
      <point x="843" y="1436"/>
      <point x="808" y="1411"/>
      <point x="787" y="1370" type="curve" smooth="yes"/>
      <point x="113" y="68" type="line" smooth="yes"/>
      <point x="107" y="56"/>
      <point x="105" y="46"/>
      <point x="105" y="37" type="curve" smooth="yes"/>
      <point x="105" y="15"/>
      <point x="122" y="0"/>
    </contour>
    <contour>
      <point x="693" y="495" type="line"/>
      <point x="685" y="495"/>
      <point x="681" y="500"/>
      <point x="681" y="505" type="curve" smooth="yes"/>
      <point x="681" y="506"/>
      <point x="682" y="508"/>
      <point x="682" y="509" type="curve" smooth="yes"/>
      <point x="1019" y="1186" type="line" smooth="yes"/>
      <point x="1020" y="1188"/>
      <point x="1021" y="1190"/>
      <point x="1024" y="1190" type="curve" smooth="yes"/>
      <point x="1026" y="1190"/>
      <point x="1028" y="1189"/>
      <point x="1029" y="1186" type="curve" smooth="yes"/>
      <point x="1346" y="510" type="line" smooth="yes"/>
      <point x="1347" y="509"/>
      <point x="1348" y="506"/>
      <point x="1348" y="504" type="curve" smooth="yes"/>
      <point x="1348" y="499"/>
      <point x="1344" y="495"/>
      <point x="1338" y="495" type="curve" smooth="yes"/>
    </contour>
  </outline>
</glyph>
<glyph name="K" format="1">
  <advance width="1808"/>
  <unicode hex="004B"/>
  <outline>
    <contour>
      <point x="905" y="1438" type="move" name="top"/>
    </contour>
    <contour>
      <point x="905" y="0" type="move" name="bottom"/>
    </contour>
    <contour>
      <point x="230" y="0" type="curve" smooth="yes"/>
      <point x="465" y="0" type="line" smooth="yes"/>
      <point x="508" y="0"/>
      <point x="535" y="27"/>
      <point x="535" y="70" type="curve" smooth="yes"/>
      <point x="535" y="711" type="line"/>
      <point x="1213" y="66" type="line" smooth="yes"/>
      <point x="1249" y="30"/>
      <point x="1283" y="0"/>
      <point x="1327" y="0" type="curve" smooth="yes"/>
      <point x="1639" y="0" type="line" smooth="yes"/>
      <point x="1680" y="0"/>
      <point x="1697" y="33"/>
      <point x="1664" y="66" type="curve" smooth="yes"/>
      <point x="938" y="753" type="line" smooth="yes"/>
      <point x="930" y="760"/>
      <point x="926" y="766"/>
      <point x="922" y="771" type="curve"/>
      <point x="927" y="777"/>
      <point x="934" y="783"/>
      <point x="940" y="790" type="curve" smooth="yes"/>
      <point x="1587" y="1369" type="line" smooth="yes"/>
      <point x="1620" y="1400"/>
      <point x="1601" y="1438"/>
      <point x="1562" y="1438" type="curve" smooth="yes"/>
      <point x="1290" y="1438" type="line" smooth="yes"/>
      <point x="1246" y="1438"/>
      <point x="1211" y="1411"/>
      <point x="1176" y="1377" type="curve" smooth="yes"/>
      <point x="535" y="782" type="line"/>
      <point x="535" y="1368" type="line" smooth="yes"/>
      <point x="535" y="1411"/>
      <point x="508" y="1438"/>
      <point x="465" y="1438" type="curve" smooth="yes"/>
      <point x="230" y="1438" type="line" smooth="yes"/>
      <point x="187" y="1438"/>
      <point x="160" y="1411"/>
      <point x="160" y="1368" type="curve" smooth="yes"/>
      <point x="160" y="70" type="line" smooth="yes"/>
      <point x="160" y="27"/>
      <point x="187" y="0"/>
    </contour>
  </outline>
</glyph>
<glyph name="P" format="1">
  <advance width="2136"/>
  <unicode hex="0050"/>
  <outline>
    <contour>
      <point x="230" y="0" type="curve" smooth="yes"/>
      <point x="460" y="0" type="line" smooth="yes"/>
      <point x="503" y="0"/>
      <point x="530" y="27"/>
      <point x="530" y="70" type="curve" smooth="yes"/>
      <point x="530" y="420" type="line" smooth="yes"/>
      <point x="530" y="426"/>
      <point x="548" y="446"/>
      <point x="554" y="446" type="curve" smooth="yes"/>
      <point x="600" y="446"/>
      <point x="1056" y="446"/>
      <point x="1098" y="446" type="curve" smooth="yes"/>
      <point x="1620" y="448"/>
      <point x="2002" y="466"/>
      <point x="2002" y="954" type="curve" smooth="yes"/>
      <point x="2002" y="1418"/>
      <point x="1538" y="1438"/>
      <point x="1053" y="1438" type="curve" smooth="yes"/>
      <point x="946" y="1438"/>
      <point x="337" y="1437"/>
      <point x="230" y="1437" type="curve" smooth="yes"/>
      <point x="187" y="1437"/>
      <point x="160" y="1410"/>
      <point x="160" y="1367" type="curve" smooth="yes"/>
      <point x="160" y="70" type="line" smooth="yes"/>
      <point x="160" y="27"/>
      <point x="187" y="0"/>
    </contour>
    <contour>
      <point x="552" y="661" type="line"/>
      <point x="546" y="661"/>
      <point x="530" y="681"/>
      <point x="530" y="687" type="curve" smooth="yes"/>
      <point x="530" y="1189" type="line" smooth="yes"/>
      <point x="530" y="1195"/>
      <point x="547" y="1212"/>
      <point x="552" y="1212" type="curve" smooth="yes"/>
      <point x="1002" y="1212" type="line" smooth="yes"/>
      <point x="1357" y="1212"/>
      <point x="1625" y="1210"/>
      <point x="1625" y="948" type="curve" smooth="yes"/>
      <point x="1625" y="669"/>
      <point x="1457" y="661"/>
      <point x="1073" y="661" type="curve" smooth="yes"/>
    </contour>
  </outline>
</glyph>
<glyph name="b" format="1">
  <advance width="1796"/>
  <unicode hex="0062"/>
  <outline>
    <contour>
      <point x="981" y="-41" type="curve" smooth="yes"/>
      <point x="1297" y="-41"/>
      <point x="1666" y="115"/>
      <point x="1666" y="502" type="curve" smooth="yes"/>
      <point x="1666" y="904"/>
      <point x="1308" y="1053"/>
      <point x="979" y="1053" type="curve" smooth="yes"/>
      <point x="786" y="1053"/>
      <point x="613" y="995"/>
      <point x="504" y="878" type="curve" smooth="yes"/>
      <point x="502" y="877"/>
      <point x="499" y="874"/>
      <point x="497" y="874" type="curve" smooth="yes"/>
      <point x="494" y="874"/>
      <point x="491" y="877"/>
      <point x="491" y="885" type="curve" smooth="yes"/>
      <point x="491" y="1364" type="line" smooth="yes"/>
      <point x="491" y="1407"/>
      <point x="464" y="1434"/>
      <point x="421" y="1434" type="curve" smooth="yes"/>
      <point x="230" y="1434" type="line" smooth="yes"/>
      <point x="187" y="1434"/>
      <point x="160" y="1407"/>
      <point x="160" y="1364" type="curve" smooth="yes"/>
      <point x="160" y="67" type="line" smooth="yes"/>
      <point x="160" y="24"/>
      <point x="172" y="0"/>
      <point x="215" y="0" type="curve" smooth="yes"/>
      <point x="257" y="0" type="line" smooth="yes"/>
      <point x="299" y="0"/>
      <point x="325" y="45"/>
      <point x="352" y="120" type="curve" smooth="yes"/>
      <point x="370" y="156"/>
      <point x="382" y="182"/>
      <point x="390" y="201" type="curve" smooth="yes"/>
      <point x="392" y="210"/>
      <point x="397" y="213"/>
      <point x="401" y="213" type="curve" smooth="yes"/>
      <point x="405" y="213"/>
      <point x="408" y="210"/>
      <point x="410" y="206" type="curve" smooth="yes"/>
      <point x="533" y="43"/>
      <point x="764" y="-41"/>
    </contour>
    <contour>
      <point x="911" y="159" type="curve" smooth="yes"/>
      <point x="671" y="159"/>
      <point x="491" y="287"/>
      <point x="491" y="507" type="curve" smooth="yes"/>
      <point x="491" y="742"/>
      <point x="683" y="858"/>
      <point x="911" y="858" type="curve" smooth="yes"/>
      <point x="1135" y="858"/>
      <point x="1326" y="745"/>
      <point x="1326" y="507" type="curve" smooth="yes"/>
      <point x="1326" y="285"/>
      <point x="1147" y="159"/>
    </contour>
  </outline>
</glyph>
<glyph name="m" format="1">
  <advance width="2673"/>
  <unicode hex="006D"/>
  <outline>
    <contour>
      <point x="222" y="0" type="curve" smooth="yes"/>
      <point x="415" y="0" type="line" smooth="yes"/>
      <point x="458" y="0"/>
      <point x="485" y="27"/>
      <point x="485" y="70" type="curve" smooth="yes"/>
      <point x="485" y="541" type="line" smooth="yes"/>
      <point x="485" y="689"/>
      <point x="678" y="858"/>
      <point x="877" y="858" type="curve" smooth="yes"/>
      <point x="1051" y="858"/>
      <point x="1172" y="770"/>
      <point x="1172" y="573" type="curve" smooth="yes"/>
      <point x="1172" y="70" type="line" smooth="yes"/>
      <point x="1172" y="27"/>
      <point x="1199" y="0"/>
      <point x="1242" y="0" type="curve" smooth="yes"/>
      <point x="1435" y="0" type="line" smooth="yes"/>
      <point x="1478" y="0"/>
      <point x="1505" y="27"/>
      <point x="1505" y="70" type="curve" smooth="yes"/>
      <point x="1505" y="495" type="line" smooth="yes"/>
      <point x="1505" y="520"/>
      <point x="1506" y="561"/>
      <point x="1506" y="563" type="curve" smooth="yes"/>
      <point x="1506" y="735"/>
      <point x="1714" y="859"/>
      <point x="1885" y="859" type="curve" smooth="yes"/>
      <point x="2064" y="859"/>
      <point x="2193" y="786"/>
      <point x="2193" y="573" type="curve" smooth="yes"/>
      <point x="2193" y="70" type="line" smooth="yes"/>
      <point x="2193" y="27"/>
      <point x="2220" y="0"/>
      <point x="2263" y="0" type="curve" smooth="yes"/>
      <point x="2460" y="0" type="line" smooth="yes"/>
      <point x="2503" y="0"/>
      <point x="2530" y="27"/>
      <point x="2530" y="70" type="curve" smooth="yes"/>
      <point x="2530" y="540" type="line" smooth="yes"/>
      <point x="2530" y="884"/>
      <point x="2285" y="1053"/>
      <point x="1962" y="1053" type="curve" smooth="yes"/>
      <point x="1773" y="1053"/>
      <point x="1583" y="991"/>
      <point x="1458" y="843" type="curve" smooth="yes"/>
      <point x="1446" y="828"/>
      <point x="1441" y="822"/>
      <point x="1433" y="822" type="curve" smooth="yes"/>
      <point x="1422" y="822"/>
      <point x="1418" y="831"/>
      <point x="1412" y="840" type="curve" smooth="yes"/>
      <point x="1319" y="986"/>
      <point x="1159" y="1053"/>
      <point x="950" y="1053" type="curve" smooth="yes"/>
      <point x="751" y="1053"/>
      <point x="557" y="982"/>
      <point x="431" y="822" type="curve" smooth="yes"/>
      <point x="425" y="814"/>
      <point x="419" y="808"/>
      <point x="411" y="808" type="curve" smooth="yes"/>
      <point x="403" y="808"/>
      <point x="399" y="812"/>
      <point x="394" y="820" type="curve" smooth="yes"/>
      <point x="351" y="942" type="line" smooth="yes"/>
      <point x="335" y="989"/>
      <point x="307" y="1006"/>
      <point x="260" y="1006" type="curve" smooth="yes"/>
      <point x="215" y="1006" type="line" smooth="yes"/>
      <point x="172" y="1006"/>
      <point x="153" y="972"/>
      <point x="153" y="929" type="curve" smooth="yes"/>
      <point x="153" y="70" type="line" smooth="yes"/>
      <point x="153" y="27"/>
      <point x="179" y="0"/>
    </contour>
  </outline>
</glyph>
<glyph name="o" format="1">
  <advance width="1763"/>
  <unicode hex="006F"/>
  <outline>
    <contour>
      <point x="882" y="1006" type="move" name="top"/>
    </contour>
    <contour>
      <point x="883" y="148" type="curve" smooth="yes"/>
      <point x="643" y="148"/>
      <point x="461" y="268"/>
      <point x="461" y="505" type="curve" smooth="yes"/>
      <point x="461" y="749"/>
      <point x="653" y="864"/>
      <point x="883" y="864" type="curve" smooth="yes"/>
      <point x="1110" y="864"/>
      <point x="1302" y="750"/>
      <point x="1302" y="505" type="curve" smooth="yes"/>
      <point x="1302" y="266"/>
      <point x="1119" y="148"/>
    </contour>
    <contour>
      <point x="884" y="-41" type="curve" smooth="yes"/>
      <point x="1202" y="-41"/>
      <point x="1634" y="75"/>
      <point x="1634" y="505" type="curve" smooth="yes"/>
      <point x="1634" y="940"/>
      <point x="1215" y="1053"/>
      <point x="884" y="1053" type="curve" smooth="yes"/>
      <point x="549" y="1053"/>
      <point x="130" y="940"/>
      <point x="130" y="505" type="curve" smooth="yes"/>
      <point x="130" y="74"/>
      <point x="561" y="-41"/>
    </contour>
  </outline>
</glyph>
<glyph name="sterling" format="1">
  <advance width="1880"/>
  <unicode hex="00A3"/>
  <outline>
    <contour>
      <point x="209" y="0" type="curve" smooth="yes"/>
      <point x="1678" y="0" type="line" smooth="yes"/>
      <point x="1710" y="0"/>
      <point x="1737" y="10"/>
      <point x="1737" y="45" type="curve" smooth="yes"/>
      <point x="1737" y="139" type="line" smooth="yes"/>
      <point x="1737" y="181"/>
      <point x="1710" y="195"/>
      <point x="1678" y="195" type="curve" smooth="yes"/>
      <point x="836" y="195" type="line" smooth="yes"/>
      <point x="751" y="195"/>
      <point x="748" y="205"/>
      <point x="748" y="275" type="curve" smooth="yes"/>
      <point x="748" y="659" type="line"/>
      <point x="1161" y="659" type="line" smooth="yes"/>
      <point x="1204" y="659"/>
      <point x="1224" y="682"/>
      <point x="1224" y="725" type="curve" smooth="yes"/>
      <point x="1224" y="777" type="line" smooth="yes"/>
      <point x="1224" y="820"/>
      <point x="1204" y="843"/>
      <point x="1161" y="843" type="curve" smooth="yes"/>
      <point x="750" y="843" type="line"/>
      <point x="750" y="906" type="line"/>
      <point x="749" y="1168"/>
      <point x="863" y="1257"/>
      <point x="1155" y="1257" type="curve" smooth="yes"/>
      <point x="1337" y="1257"/>
      <point x="1619" y="1188"/>
      <point x="1658" y="1181" type="curve" smooth="yes"/>
      <point x="1667" y="1179"/>
      <point x="1674" y="1178"/>
      <point x="1681" y="1178" type="curve" smooth="yes"/>
      <point x="1707" y="1178"/>
      <point x="1717" y="1191"/>
      <point x="1725" y="1222" type="curve" smooth="yes"/>
      <point x="1746" y="1323" type="line" smooth="yes"/>
      <point x="1747" y="1328"/>
      <point x="1747" y="1332"/>
      <point x="1747" y="1336" type="curve" smooth="yes"/>
      <point x="1747" y="1366"/>
      <point x="1731" y="1383"/>
      <point x="1694" y="1393" type="curve" smooth="yes"/>
      <point x="1581" y="1426"/>
      <point x="1360" y="1475"/>
      <point x="1121" y="1475" type="curve" smooth="yes"/>
      <point x="578" y="1475"/>
      <point x="383" y="1236"/>
      <point x="365" y="843" type="curve"/>
      <point x="209" y="843" type="line" smooth="yes"/>
      <point x="166" y="843"/>
      <point x="146" y="820"/>
      <point x="146" y="777" type="curve" smooth="yes"/>
      <point x="146" y="725" type="line" smooth="yes"/>
      <point x="146" y="682"/>
      <point x="166" y="659"/>
      <point x="209" y="659" type="curve" smooth="yes"/>
      <point x="338" y="659" type="line" smooth="yes"/>
      <point x="363" y="659"/>
      <point x="370" y="643"/>
      <point x="370" y="616" type="curve" smooth="yes"/>
      <point x="370" y="249" type="line" smooth="yes"/>
      <point x="370" y="206"/>
      <point x="367" y="195"/>
      <point x="338" y="195" type="curve" smooth="yes"/>
      <point x="209" y="195" type="line" smooth="yes"/>
      <point x="166" y="195"/>
      <point x="146" y="168"/>
      <point x="146" y="125" type="curve" smooth="yes"/>
      <point x="146" y="66" type="line" smooth="yes"/>
      <point x="146" y="23"/>
      <point x="166" y="0"/>
    </contour>
  </outline>
</glyph>
<glyph name="plusminus" format="1">
  <advance width="1289"/>
  <unicode hex="00B1"/>
  <outline>
    <contour>
      <point x="568" y="203" type="curve" smooth="yes"/>
      <point x="672" y="203" type="line" smooth="yes"/>
      <point x="715" y="203"/>
      <point x="735" y="230"/>
      <point x="735" y="273" type="curve" smooth="yes"/>
      <point x="735" y="578" type="line" smooth="yes"/>
      <point x="735" y="598"/>
      <point x="744" y="615"/>
      <point x="764" y="615" type="curve" smooth="yes"/>
      <point x="1048" y="615" type="line" smooth="yes"/>
      <point x="1091" y="615"/>
      <point x="1110" y="635"/>
      <point x="1110" y="678" type="curve" smooth="yes"/>
      <point x="1110" y="780" type="line" smooth="yes"/>
      <point x="1110" y="823"/>
      <point x="1091" y="843"/>
      <point x="1048" y="843" type="curve" smooth="yes"/>
      <point x="764" y="843" type="line" smooth="yes"/>
      <point x="744" y="843"/>
      <point x="735" y="860"/>
      <point x="735" y="880" type="curve" smooth="yes"/>
      <point x="735" y="1192" type="line" smooth="yes"/>
      <point x="735" y="1235"/>
      <point x="715" y="1262"/>
      <point x="672" y="1262" type="curve" smooth="yes"/>
      <point x="568" y="1262" type="line" smooth="yes"/>
      <point x="525" y="1262"/>
      <point x="506" y="1235"/>
      <point x="506" y="1192" type="curve" smooth="yes"/>
      <point x="506" y="880" type="line" smooth="yes"/>
      <point x="506" y="860"/>
      <point x="496" y="843"/>
      <point x="476" y="843" type="curve" smooth="yes"/>
      <point x="192" y="843" type="line" smooth="yes"/>
      <point x="149" y="843"/>
      <point x="129" y="823"/>
      <point x="129" y="780" type="curve" smooth="yes"/>
      <point x="129" y="678" type="line" smooth="yes"/>
      <point x="129" y="635"/>
      <point x="149" y="615"/>
      <point x="192" y="615" type="curve" smooth="yes"/>
      <point x="476" y="615" type="line" smooth="yes"/>
      <point x="496" y="615"/>
      <point x="506" y="598"/>
      <point x="506" y="578" type="curve" smooth="yes"/>
      <point x="506" y="273" type="line" smooth="yes"/>
      <point x="506" y="230"/>
      <point x="525" y="203"/>
    </contour>
    <contour>
      <point x="172" y="-72" type="curve" smooth="yes"/>
      <point x="1061" y="-72" type="line" smooth="yes"/>
      <point x="1104" y="-72"/>
      <point x="1130" y="-45"/>
      <point x="1130" y="-2" type="curve" smooth="yes"/>
      <point x="1130" y="78" type="line" smooth="yes"/>
      <point x="1130" y="121"/>
      <point x="1104" y="148"/>
      <point x="1061" y="148" type="curve" smooth="yes"/>
      <point x="172" y="148" type="line" smooth="yes"/>
      <point x="129" y="148"/>
      <point x="102" y="121"/>
      <point x="102" y="78" type="curve" smooth="yes"/>
      <point x="102" y="-2" type="line" smooth="yes"/>
      <point x="102" y="-45"/>
      <point x="129" y="-72"/>
    </contour>
  </outline>
</glyph>
<glyph name="acute" format="1">
  <advance width="1745"/>
  <unicode hex="00B4"/>
  <outline>
    <contour>
      <point x="873" y="1006" type="move" name="_top"/>
    </contour>
    <contour>
      <point x="983" y="1168" type="curve" smooth="yes"/>
      <point x="1045" y="1168" type="line" smooth="yes"/>
      <point x="1064" y="1168"/>
      <point x="1073" y="1175"/>
      <point x="1095" y="1207" type="curve" smooth="yes"/>
      <point x="1307" y="1540" type="line" smooth="yes"/>
      <point x="1314" y="1552"/>
      <point x="1319" y="1566"/>
      <point x="1319" y="1577" type="curve" smooth="yes"/>
      <point x="1319" y="1593"/>
      <point x="1311" y="1605"/>
      <point x="1291" y="1605" type="curve" smooth="yes"/>
      <point x="1095" y="1605" type="line" smooth="yes"/>
      <point x="1051" y="1605"/>
      <point x="1036" y="1593"/>
      <point x="1028" y="1550" type="curve" smooth="yes"/>
      <point x="965" y="1235" type="line"/>
      <point x="959" y="1208"/>
      <point x="951" y="1168"/>
    </contour>
  </outline>
</glyph>
<glyph name="AE" format="1">
  <advance width="2440"/>
  <unicode hex="00C6"/>
  <outline>
    <contour>
      <point x="1220" y="1438" type="move" name="top"/>
    </contour>
    <contour>
      <point x="151" y="0" type="curve" smooth="yes"/>
      <point x="375" y="0" type="line" smooth="yes"/>
      <point x="419" y="0"/>
      <point x="455" y="22"/>
      <point x="474" y="64" type="curve"/>
      <point x="579" y="279" type="line"/>
      <point x="582" y="285"/>
      <point x="588" y="292"/>
      <point x="597" y="292" type="curve" smooth="yes"/>
      <point x="1043" y="292" type="line"/>
      <point x="1043" y="70" type="line" smooth="yes"/>
      <point x="1043" y="27"/>
      <point x="1070" y="0"/>
      <point x="1113" y="0" type="curve" smooth="yes"/>
      <point x="2232" y="0" type="line" smooth="yes"/>
      <point x="2275" y="0"/>
      <point x="2301" y="34"/>
      <point x="2301" y="77" type="curve" smooth="yes"/>
      <point x="2301" y="147" type="line" smooth="yes"/>
      <point x="2301" y="190"/>
      <point x="2275" y="223"/>
      <point x="2232" y="223" type="curve" smooth="yes"/>
      <point x="1421" y="223" type="line" smooth="yes"/>
      <point x="1416" y="223"/>
      <point x="1402" y="237"/>
      <point x="1402" y="243" type="curve" smooth="yes"/>
      <point x="1402" y="620" type="line" smooth="yes"/>
      <point x="1402" y="626"/>
      <point x="1420" y="640"/>
      <point x="1426" y="640" type="curve" smooth="yes"/>
      <point x="2107" y="640" type="line" smooth="yes"/>
      <point x="2150" y="640"/>
      <point x="2177" y="674"/>
      <point x="2177" y="717" type="curve" smooth="yes"/>
      <point x="2177" y="760" type="line" smooth="yes"/>
      <point x="2177" y="803"/>
      <point x="2150" y="837"/>
      <point x="2107" y="837" type="curve" smooth="yes"/>
      <point x="1421" y="837" type="line" smooth="yes"/>
      <point x="1416" y="837"/>
      <point x="1402" y="857"/>
      <point x="1402" y="863" type="curve" smooth="yes"/>
      <point x="1402" y="1188" type="line" smooth="yes"/>
      <point x="1402" y="1208"/>
      <point x="1411" y="1213"/>
      <point x="1431" y="1213" type="curve" smooth="yes"/>
      <point x="2211" y="1213" type="line" smooth="yes"/>
      <point x="2254" y="1213"/>
      <point x="2281" y="1247"/>
      <point x="2281" y="1290" type="curve" smooth="yes"/>
      <point x="2281" y="1361" type="line" smooth="yes"/>
      <point x="2281" y="1404"/>
      <point x="2254" y="1438"/>
      <point x="2211" y="1438" type="curve" smooth="yes"/>
      <point x="889" y="1438" type="line" smooth="yes"/>
      <point x="847" y="1436"/>
      <point x="811" y="1411"/>
      <point x="791" y="1370" type="curve" smooth="yes"/>
      <point x="114" y="68" type="line" smooth="yes"/>
      <point x="107" y="56"/>
      <point x="105" y="46"/>
      <point x="105" y="37" type="curve" smooth="yes"/>
      <point x="105" y="15"/>
      <point x="122" y="0"/>
    </contour>
    <contour>
      <point x="690" y="495" type="line"/>
      <point x="682" y="495"/>
      <point x="678" y="500"/>
      <point x="678" y="505" type="curve" smooth="yes"/>
      <point x="678" y="506"/>
      <point x="679" y="508"/>
      <point x="679" y="509" type="curve" smooth="yes"/>
      <point x="1030" y="1230" type="line" smooth="yes"/>
      <point x="1032" y="1232"/>
      <point x="1033" y="1234"/>
      <point x="1035" y="1234" type="curve" smooth="yes"/>
      <point x="1036" y="1234"/>
      <point x="1035" y="1234"/>
      <point x="1043" y="1233" type="curve"/>
      <point x="1043" y="495" type="line"/>
    </contour>
  </outline>
</glyph>
<glyph name="multiply" format="1">
  <advance width="1142"/>
  <unicode hex="00D7"/>
  <outline>
    <contour>
      <point x="286" y="235" type="curve" smooth="yes"/>
      <point x="306" y="235"/>
      <point x="324" y="240"/>
      <point x="341" y="258" type="curve" smooth="yes"/>
      <point x="354" y="270"/>
      <point x="486" y="407"/>
      <point x="572" y="493" type="curve"/>
      <point x="667" y="404"/>
      <point x="806" y="267"/>
      <point x="810" y="263" type="curve" smooth="yes"/>
      <point x="825" y="247"/>
      <point x="844" y="240"/>
      <point x="863" y="240" type="curve" smooth="yes"/>
      <point x="884" y="240"/>
      <point x="903" y="248"/>
      <point x="918" y="263" type="curve" smooth="yes"/>
      <point x="980" y="326" type="line" smooth="yes"/>
      <point x="995" y="341"/>
      <point x="1002" y="361"/>
      <point x="1002" y="380" type="curve" smooth="yes"/>
      <point x="1002" y="400"/>
      <point x="998" y="417"/>
      <point x="979" y="435" type="curve" smooth="yes"/>
      <point x="976" y="438"/>
      <point x="801" y="618"/>
      <point x="743" y="669" type="curve"/>
      <point x="834" y="760"/>
      <point x="970" y="902"/>
      <point x="974" y="905" type="curve" smooth="yes"/>
      <point x="990" y="922"/>
      <point x="997" y="940"/>
      <point x="997" y="959" type="curve" smooth="yes"/>
      <point x="997" y="979"/>
      <point x="989" y="999"/>
      <point x="974" y="1014" type="curve" smooth="yes"/>
      <point x="913" y="1078" type="line" smooth="yes"/>
      <point x="898" y="1094"/>
      <point x="879" y="1101"/>
      <point x="859" y="1101" type="curve" smooth="yes"/>
      <point x="839" y="1101"/>
      <point x="822" y="1096"/>
      <point x="804" y="1078" type="curve" smooth="yes"/>
      <point x="798" y="1072"/>
      <point x="662" y="933"/>
      <point x="570" y="842" type="curve"/>
      <point x="477" y="931"/>
      <point x="340" y="1069"/>
      <point x="337" y="1072" type="curve" smooth="yes"/>
      <point x="321" y="1089"/>
      <point x="304" y="1095"/>
      <point x="283" y="1095" type="curve" smooth="yes"/>
      <point x="264" y="1095"/>
      <point x="244" y="1087"/>
      <point x="228" y="1072" type="curve" smooth="yes"/>
      <point x="161" y="1005" type="line" smooth="yes"/>
      <point x="146" y="990"/>
      <point x="138" y="970"/>
      <point x="138" y="951" type="curve" smooth="yes"/>
      <point x="138" y="931"/>
      <point x="144" y="913"/>
      <point x="161" y="896" type="curve" smooth="yes"/>
      <point x="174" y="884"/>
      <point x="309" y="750"/>
      <point x="397" y="667" type="curve"/>
      <point x="306" y="578"/>
      <point x="170" y="439"/>
      <point x="167" y="435" type="curve" smooth="yes"/>
      <point x="151" y="419"/>
      <point x="145" y="401"/>
      <point x="145" y="381" type="curve" smooth="yes"/>
      <point x="145" y="361"/>
      <point x="152" y="342"/>
      <point x="167" y="326" type="curve" smooth="yes"/>
      <point x="232" y="258" type="line" smooth="yes"/>
      <point x="247" y="243"/>
      <point x="267" y="235"/>
    </contour>
  </outline>
</glyph>
<glyph name="germandbls" format="1">
  <advance width="1822"/>
  <unicode hex="00DF"/>
  <outline>
    <contour>
      <point x="219" y="0" type="curve" smooth="yes"/>
      <point x="409" y="0" type="line" smooth="yes"/>
      <point x="467" y="0"/>
      <point x="485" y="35"/>
      <point x="485" y="86" type="curve" smooth="yes"/>
      <point x="485" y="955" type="line" smooth="yes"/>
      <point x="485" y="1154"/>
      <point x="579" y="1232"/>
      <point x="795" y="1232" type="curve" smooth="yes"/>
      <point x="1167" y="1232"/>
      <point x="1275" y="1180"/>
      <point x="1275" y="1025" type="curve" smooth="yes"/>
      <point x="1275" y="925"/>
      <point x="1199" y="845"/>
      <point x="901" y="844" type="curve"/>
      <point x="714" y="844" type="line" smooth="yes"/>
      <point x="683" y="844"/>
      <point x="674" y="828"/>
      <point x="674" y="806" type="curve" smooth="yes"/>
      <point x="674" y="692" type="line" smooth="yes"/>
      <point x="674" y="673"/>
      <point x="685" y="658"/>
      <point x="714" y="658" type="curve" smooth="yes"/>
      <point x="888" y="658" type="line" smooth="yes"/>
      <point x="1254" y="658"/>
      <point x="1365" y="595"/>
      <point x="1365" y="448" type="curve" smooth="yes"/>
      <point x="1365" y="285"/>
      <point x="1263" y="222"/>
      <point x="848" y="222" type="curve" smooth="yes"/>
      <point x="694" y="222" type="line"/>
      <point x="665" y="223"/>
      <point x="651" y="205"/>
      <point x="651" y="187" type="curve" smooth="yes"/>
      <point x="651" y="42" type="line" smooth="yes"/>
      <point x="651" y="19"/>
      <point x="660" y="0"/>
      <point x="692" y="0" type="curve" smooth="yes"/>
      <point x="835" y="0" type="line" smooth="yes"/>
      <point x="1334" y="0"/>
      <point x="1690" y="96"/>
      <point x="1690" y="424" type="curve" smooth="yes"/>
      <point x="1690" y="590"/>
      <point x="1567" y="707"/>
      <point x="1390" y="761" type="curve" smooth="yes"/>
      <point x="1375" y="765"/>
      <point x="1374" y="777"/>
      <point x="1387" y="783" type="curve" smooth="yes"/>
      <point x="1509" y="843"/>
      <point x="1563" y="929"/>
      <point x="1563" y="1040" type="curve" smooth="yes"/>
      <point x="1563" y="1339"/>
      <point x="1293" y="1438"/>
      <point x="865" y="1438" type="curve" smooth="yes"/>
      <point x="760" y="1438" type="line" smooth="yes"/>
      <point x="237" y="1438"/>
      <point x="156" y="1232"/>
      <point x="156" y="969" type="curve" smooth="yes"/>
      <point x="156" y="77" type="line" smooth="yes"/>
      <point x="156" y="34"/>
      <point x="176" y="0"/>
    </contour>
  </outline>
</glyph>
<glyph name="eth" format="1">
  <advance width="1929"/>
  <unicode hex="00F0"/>
  <outline>
    <contour>
      <point x="969" y="-41" type="curve" smooth="yes"/>
      <point x="1565" y="-41"/>
      <point x="1796" y="186"/>
      <point x="1796" y="603" type="curve" smooth="yes"/>
      <point x="1796" y="908"/>
      <point x="1554" y="1198"/>
      <point x="1202" y="1368" type="curve"/>
      <point x="1212" y="1380"/>
      <point x="1314" y="1487"/>
      <point x="1323" y="1497" type="curve" smooth="yes"/>
      <point x="1333" y="1507"/>
      <point x="1337" y="1520"/>
      <point x="1337" y="1532" type="curve" smooth="yes"/>
      <point x="1337" y="1545"/>
      <point x="1333" y="1558"/>
      <point x="1323" y="1568" type="curve" smooth="yes"/>
      <point x="1322" y="1568"/>
      <point x="1316" y="1575"/>
      <point x="1282" y="1609" type="curve" smooth="yes"/>
      <point x="1272" y="1619"/>
      <point x="1259" y="1624"/>
      <point x="1246" y="1624" type="curve" smooth="yes"/>
      <point x="1232" y="1624"/>
      <point x="1219" y="1619"/>
      <point x="1209" y="1608" type="curve" smooth="yes"/>
      <point x="1197" y="1595"/>
      <point x="1063" y="1454"/>
      <point x="1047" y="1435" type="curve"/>
      <point x="934" y="1479"/>
      <point x="819" y="1512"/>
      <point x="714" y="1533" type="curve" smooth="yes"/>
      <point x="706" y="1534"/>
      <point x="699" y="1535"/>
      <point x="693" y="1535" type="curve" smooth="yes"/>
      <point x="668" y="1535"/>
      <point x="662" y="1524"/>
      <point x="652" y="1502" type="curve" smooth="yes"/>
      <point x="609" y="1399" type="line" smooth="yes"/>
      <point x="606" y="1392"/>
      <point x="605" y="1384"/>
      <point x="605" y="1379" type="curve" smooth="yes"/>
      <point x="605" y="1361"/>
      <point x="617" y="1350"/>
      <point x="633" y="1343" type="curve" smooth="yes"/>
      <point x="717" y="1313"/>
      <point x="801" y="1284"/>
      <point x="881" y="1253" type="curve"/>
      <point x="872" y="1242"/>
      <point x="755" y="1119"/>
      <point x="748" y="1111" type="curve" smooth="yes"/>
      <point x="738" y="1101"/>
      <point x="733" y="1088"/>
      <point x="733" y="1075" type="curve" smooth="yes"/>
      <point x="733" y="1062"/>
      <point x="739" y="1048"/>
      <point x="748" y="1039" type="curve" smooth="yes"/>
      <point x="788" y="1000" type="line" smooth="yes"/>
      <point x="798" y="990"/>
      <point x="811" y="985"/>
      <point x="824" y="985" type="curve" smooth="yes"/>
      <point x="838" y="985"/>
      <point x="851" y="990"/>
      <point x="861" y="1001" type="curve" smooth="yes"/>
      <point x="875" y="1017"/>
      <point x="1025" y="1173"/>
      <point x="1035" y="1185" type="curve"/>
      <point x="1239" y="1087"/>
      <point x="1387" y="968"/>
      <point x="1451" y="779" type="curve"/>
      <point x="1376" y="850"/>
      <point x="1175" y="898"/>
      <point x="905" y="898" type="curve" smooth="yes"/>
      <point x="325" y="898"/>
      <point x="129" y="697"/>
      <point x="129" y="433" type="curve" smooth="yes"/>
      <point x="129" y="78"/>
      <point x="469" y="-41"/>
    </contour>
    <contour>
      <point x="973" y="175" type="curve" smooth="yes"/>
      <point x="644" y="175"/>
      <point x="460" y="225"/>
      <point x="460" y="444" type="curve" smooth="yes"/>
      <point x="460" y="608"/>
      <point x="561" y="717"/>
      <point x="958" y="717" type="curve" smooth="yes"/>
      <point x="1225" y="717"/>
      <point x="1460" y="674"/>
      <point x="1460" y="465" type="curve" smooth="yes"/>
      <point x="1460" y="272"/>
      <point x="1285" y="175"/>
    </contour>
  </outline>
</glyph>
<glyph name="hbar" format="1">
  <advance width="1701"/>
  <unicode hex="0127"/>
  <outline>
    <contour>
      <point x="230" y="0" type="curve" smooth="yes"/>
      <point x="423" y="0" type="line" smooth="yes"/>
      <point x="466" y="0"/>
      <point x="492" y="27"/>
      <point x="492" y="70" type="curve" smooth="yes"/>
      <point x="492" y="573" type="line" smooth="yes"/>
      <point x="492" y="706"/>
      <point x="704" y="858"/>
      <point x="901" y="858" type="curve" smooth="yes"/>
      <point x="1087" y="858"/>
      <point x="1222" y="770"/>
      <point x="1222" y="573" type="curve" smooth="yes"/>
      <point x="1222" y="70" type="line" smooth="yes"/>
      <point x="1222" y="27"/>
      <point x="1249" y="0"/>
      <point x="1292" y="0" type="curve" smooth="yes"/>
      <point x="1489" y="0" type="line" smooth="yes"/>
      <point x="1532" y="0"/>
      <point x="1558" y="27"/>
      <point x="1558" y="70" type="curve" smooth="yes"/>
      <point x="1558" y="540" type="line" smooth="yes"/>
      <point x="1558" y="881"/>
      <point x="1315" y="1053"/>
      <point x="991" y="1053" type="curve" smooth="yes"/>
      <point x="813" y="1053"/>
      <point x="638" y="998"/>
      <point x="507" y="870" type="curve" smooth="yes"/>
      <point x="504" y="867"/>
      <point x="492" y="873"/>
      <point x="492" y="879" type="curve" smooth="yes"/>
      <point x="492" y="1128" type="line"/>
      <point x="737" y="1128" type="line" smooth="yes"/>
      <point x="778" y="1128"/>
      <point x="796" y="1155"/>
      <point x="796" y="1198" type="curve" smooth="yes"/>
      <point x="796" y="1235" type="line" smooth="yes"/>
      <point x="796" y="1278"/>
      <point x="778" y="1305"/>
      <point x="737" y="1305" type="curve" smooth="yes"/>
      <point x="492" y="1305" type="line"/>
      <point x="492" y="1367" type="line" smooth="yes"/>
      <point x="492" y="1410"/>
      <point x="465" y="1437"/>
      <point x="422" y="1437" type="curve" smooth="yes"/>
      <point x="230" y="1437" type="line" smooth="yes"/>
      <point x="187" y="1437"/>
      <point x="160" y="1410"/>
      <point x="160" y="1367" type="curve" smooth="yes"/>
      <point x="160" y="1305" type="line"/>
      <point x="59" y="1305" type="line" smooth="yes"/>
      <point x="18" y="1305"/>
      <point x="0" y="1278"/>
      <point x="0" y="1235" type="curve" smooth="yes"/>
      <point x="0" y="1198" type="line" smooth="yes"/>
      <point x="0" y="1155"/>
      <point x="18" y="1128"/>
      <point x="59" y="1128" type="curve" smooth="yes"/>
      <point x="160" y="1128" type="line"/>
      <point x="160" y="70" type="line" smooth="yes"/>
      <point x="160" y="27"/>
      <point x="187" y="0"/>
    </contour>
  </outline>
</glyph>
<glyph name="dotlessi" format="1">
  <advance width="643"/>
  <unicode hex="0131"/>
  <outline>
    <contour>
      <point x="322" y="1006" type="move" name="top"/>
    </contour>
    <contour>
      <point x="579" y="10" type="move" name="ogonek"/>
    </contour>
    <contour>
      <point x="226" y="0" type="curve" smooth="yes"/>
      <point x="418" y="0" type="line" smooth="yes"/>
      <point x="461" y="0"/>
      <point x="488" y="27"/>
      <point x="488" y="70" type="curve" smooth="yes"/>
      <point x="488" y="936" type="line" smooth="yes"/>
      <point x="488" y="979"/>
      <point x="461" y="1006"/>
      <point x="418" y="1006" type="curve" smooth="yes"/>
      <point x="226" y="1006" type="line" smooth="yes"/>
      <point x="183" y="1006"/>
      <point x="156" y="979"/>
      <point x="156" y="936" type="curve" smooth="yes"/>
      <point x="156" y="70" type="line" smooth="yes"/>
      <point x="156" y="27"/>
      <point x="183" y="0"/>
    </contour>
  </outline>
</glyph>
<glyph name="lslash" format="1">
  <advance width="824"/>
  <unicode hex="0142"/>
  <outline>
    <contour>
      <point x="305" y="0" type="curve" smooth="yes"/>
      <point x="497" y="0" type="line" smooth="yes"/>
      <point x="540" y="0"/>
      <point x="567" y="27"/>
      <point x="567" y="70" type="curve" smooth="yes"/>
      <point x="567" y="778" type="line"/>
      <point x="738" y="830" type="line" smooth="yes"/>
      <point x="768" y="835"/>
      <point x="786" y="853"/>
      <point x="786" y="888" type="curve"/>
      <point x="786" y="993" type="line"/>
      <point x="786" y="1027"/>
      <point x="769" y="1054"/>
      <point x="738" y="1049" type="curve" smooth="yes"/>
      <point x="567" y="997" type="line"/>
      <point x="567" y="1379" type="line" smooth="yes"/>
      <point x="567" y="1422"/>
      <point x="540" y="1449"/>
      <point x="497" y="1449" type="curve" smooth="yes"/>
      <point x="305" y="1449" type="line" smooth="yes"/>
      <point x="262" y="1449"/>
      <point x="235" y="1422"/>
      <point x="235" y="1379" type="curve" smooth="yes"/>
      <point x="235" y="896" type="line"/>
      <point x="86" y="851" type="line" smooth="yes"/>
      <point x="56" y="844"/>
      <point x="40" y="827"/>
      <point x="40" y="791" type="curve"/>
      <point x="40" y="693" type="line"/>
      <point x="40" y="658"/>
      <point x="56" y="625"/>
      <point x="86" y="632" type="curve" smooth="yes"/>
      <point x="235" y="677" type="line"/>
      <point x="235" y="70" type="line" smooth="yes"/>
      <point x="235" y="27"/>
      <point x="262" y="0"/>
    </contour>
  </outline>
</glyph>
<glyph name="oe" format="1">
  <advance width="3235"/>
  <unicode hex="0153"/>
  <outline>
    <contour>
      <point x="2067" y="-42" type="curve" smooth="yes"/>
      <point x="2235" y="-42"/>
      <point x="2487" y="6"/>
      <point x="2620" y="62" type="curve"/>
      <point x="2663" y="80"/>
      <point x="2665" y="110"/>
      <point x="2655" y="141" type="curve" smooth="yes"/>
      <point x="2646" y="172"/>
      <point x="2639" y="191"/>
      <point x="2633" y="208" type="curve" smooth="yes"/>
      <point x="2624" y="235"/>
      <point x="2596" y="245"/>
      <point x="2555" y="229" type="curve" smooth="yes"/>
      <point x="2476" y="197"/>
      <point x="2333" y="145"/>
      <point x="2112" y="145" type="curve" smooth="yes"/>
      <point x="1766" y="145"/>
      <point x="1632" y="296"/>
      <point x="1631" y="433" type="curve" smooth="yes"/>
      <point x="1631" y="443"/>
      <point x="1638" y="450"/>
      <point x="1650" y="450" type="curve" smooth="yes"/>
      <point x="2613" y="450" type="line" smooth="yes"/>
      <point x="2697" y="450"/>
      <point x="2714" y="503"/>
      <point x="2716" y="533" type="curve"/>
      <point x="2716" y="536"/>
      <point x="2716" y="577"/>
      <point x="2716" y="581" type="curve" smooth="yes"/>
      <point x="2686" y="849"/>
      <point x="2448" y="1053"/>
      <point x="2039" y="1053" type="curve" smooth="yes"/>
      <point x="1831" y="1053"/>
      <point x="1609" y="1003"/>
      <point x="1473" y="864" type="curve"/>
      <point x="1331" y="1006"/>
      <point x="1100" y="1053"/>
      <point x="896" y="1053" type="curve" smooth="yes"/>
      <point x="561" y="1053"/>
      <point x="146" y="940"/>
      <point x="146" y="505" type="curve" smooth="yes"/>
      <point x="146" y="74"/>
      <point x="574" y="-41"/>
      <point x="896" y="-41" type="curve" smooth="yes"/>
      <point x="1091" y="-41"/>
      <point x="1326" y="7"/>
      <point x="1470" y="148" type="curve"/>
      <point x="1609" y="4"/>
      <point x="1842" y="-42"/>
    </contour>
    <contour>
      <point x="1643" y="599" type="line"/>
      <point x="1635" y="599"/>
      <point x="1634" y="607"/>
      <point x="1634" y="614" type="curve" smooth="yes"/>
      <point x="1661" y="791"/>
      <point x="1849" y="877"/>
      <point x="2042" y="877" type="curve" smooth="yes"/>
      <point x="2314" y="877"/>
      <point x="2401" y="740"/>
      <point x="2429" y="609" type="curve"/>
      <point x="2429" y="605"/>
      <point x="2430" y="599"/>
      <point x="2426" y="599" type="curve" smooth="yes"/>
    </contour>
    <contour>
      <point x="895" y="148" type="curve" smooth="yes"/>
      <point x="656" y="148"/>
      <point x="477" y="268"/>
      <point x="477" y="505" type="curve" smooth="yes"/>
      <point x="477" y="749"/>
      <point x="666" y="864"/>
      <point x="895" y="864" type="curve" smooth="yes"/>
      <point x="1122" y="864"/>
      <point x="1319" y="750"/>
      <point x="1319" y="505" type="curve" smooth="yes"/>
      <point x="1319" y="266"/>
      <point x="1132" y="148"/>
    </contour>
    <contour>
      <point x="1734" y="1006" type="move" name="top"/>
    </contour>
  </outline>
</glyph>
<glyph name="dotaccent" format="1">
  <advance width="543"/>
  <unicode hex="02D9"/>
  <outline>
    <contour>
      <point x="42" y="633" type="curve" smooth="yes"/>
      <point x="204" y="633" type="line" smooth="yes"/>
      <point x="247" y="633"/>
      <point x="281" y="667"/>
      <point x="281" y="710" type="curve" smooth="yes"/>
      <point x="281" y="870" type="line" smooth="yes"/>
      <point x="281" y="913"/>
      <point x="247" y="947"/>
      <point x="204" y="947" type="curve" smooth="yes"/>
      <point x="42" y="947" type="line" smooth="yes"/>
      <point x="-1" y="947"/>
      <point x="-35" y="913"/>
      <point x="-35" y="870" type="curve" smooth="yes"/>
      <point x="-35" y="710" type="line" smooth="yes"/>
      <point x="-35" y="667"/>
      <point x="-1" y="633"/>
    </contour>
    <contour>
      <point x="123" y="1006" type="move" name="_top"/>
    </contour>
  </outline>
</glyph>
<glyph name="uni0326" format="1">
  <advance width="1745"/>
  <unicode hex="0326"/>
  <outline>
    <contour>
      <point x="833" y="0" type="move" name="_bottom"/>
    </contour>
    <contour>
      <point x="693" y="-610" type="curve" smooth="yes"/>
      <point x="738" y="-610" type="line" smooth="yes"/>
      <point x="776" y="-610"/>
      <point x="781" y="-593"/>
      <point x="794" y="-571" type="curve" smooth="yes"/>
      <point x="1002" y="-238" type="line" smooth="yes"/>
      <point x="1009" y="-226"/>
      <point x="1014" y="-212"/>
      <point x="1014" y="-201" type="curve" smooth="yes"/>
      <point x="1014" y="-185"/>
      <point x="1006" y="-173"/>
      <point x="986" y="-173" type="curve" smooth="yes"/>
      <point x="789" y="-173" type="line" smooth="yes"/>
      <point x="745" y="-173"/>
      <point x="726" y="-185"/>
      <point x="718" y="-228" type="curve" smooth="yes"/>
      <point x="655" y="-543" type="line" smooth="yes"/>
      <point x="652" y="-557"/>
      <point x="651" y="-569"/>
      <point x="651" y="-578" type="curve" smooth="yes"/>
      <point x="651" y="-605"/>
      <point x="664" y="-610"/>
    </contour>
  </outline>
</glyph>
<glyph name="quotedblleft" format="1">
  <advance width="853"/>
  <unicode hex="201C"/>
  <outline>
    <contour>
      <point x="215" y="872" type="curve" smooth="yes"/>
      <point x="433" y="872" type="line" smooth="yes"/>
      <point x="476" y="872"/>
      <point x="493" y="897"/>
      <point x="493" y="940" type="curve" smooth="yes"/>
      <point x="493" y="1143" type="line" smooth="yes"/>
      <point x="493" y="1181"/>
      <point x="471" y="1199"/>
      <point x="433" y="1199" type="curve" smooth="yes"/>
      <point x="351" y="1199" type="line" smooth="yes"/>
      <point x="336" y="1199"/>
      <point x="334" y="1210"/>
      <point x="334" y="1226" type="curve" smooth="yes"/>
      <point x="334" y="1250"/>
      <point x="360" y="1327"/>
      <point x="429" y="1370" type="curve" smooth="yes"/>
      <point x="472" y="1397"/>
      <point x="493" y="1391"/>
      <point x="493" y="1445" type="curve" smooth="yes"/>
      <point x="493" y="1467" type="line" smooth="yes"/>
      <point x="493" y="1503"/>
      <point x="459" y="1518"/>
      <point x="424" y="1512" type="curve" smooth="yes"/>
      <point x="286" y="1489"/>
      <point x="141" y="1362"/>
      <point x="141" y="1125" type="curve" smooth="yes"/>
      <point x="141" y="949" type="line" smooth="yes"/>
      <point x="141" y="906"/>
      <point x="172" y="872"/>
    </contour>
    <contour>
      <point x="708" y="872" type="curve" smooth="yes"/>
      <point x="926" y="872" type="line" smooth="yes"/>
      <point x="969" y="872"/>
      <point x="986" y="897"/>
      <point x="986" y="940" type="curve" smooth="yes"/>
      <point x="986" y="1143" type="line" smooth="yes"/>
      <point x="986" y="1181"/>
      <point x="964" y="1199"/>
      <point x="926" y="1199" type="curve" smooth="yes"/>
      <point x="844" y="1199" type="line" smooth="yes"/>
      <point x="829" y="1199"/>
      <point x="827" y="1210"/>
      <point x="827" y="1226" type="curve" smooth="yes"/>
      <point x="827" y="1250"/>
      <point x="853" y="1327"/>
      <point x="922" y="1370" type="curve" smooth="yes"/>
      <point x="965" y="1397"/>
      <point x="986" y="1391"/>
      <point x="986" y="1445" type="curve" smooth="yes"/>
      <point x="986" y="1467" type="line" smooth="yes"/>
      <point x="986" y="1503"/>
      <point x="952" y="1518"/>
      <point x="917" y="1512" type="curve" smooth="yes"/>
      <point x="779" y="1489"/>
      <point x="635" y="1362"/>
      <point x="635" y="1125" type="curve" smooth="yes"/>
      <point x="635" y="949" type="line" smooth="yes"/>
      <point x="635" y="906"/>
      <point x="665" y="872"/>
    </contour>
  </outline>
</glyph>
<glyph name="fraction" format="1">
  <advance width="1291"/>
  <unicode hex="2044"/>
  <outline>
    <contour>
      <point x="125" y="-203" type="curve" smooth="yes"/>
      <point x="148" y="-204"/>
      <point x="263" y="-203"/>
      <point x="265" y="-203" type="curve" smooth="yes"/>
      <point x="305" y="-203"/>
      <point x="321" y="-181"/>
      <point x="328" y="-167" type="curve" smooth="yes"/>
      <point x="1194" y="1573" type="line" smooth="yes"/>
      <point x="1198" y="1582"/>
      <point x="1231" y="1647"/>
      <point x="1168" y="1647" type="curve" smooth="yes"/>
      <point x="1154" y="1647"/>
      <point x="1066" y="1647"/>
      <point x="1065" y="1647" type="curve" smooth="yes"/>
      <point x="1028" y="1647"/>
      <point x="1000" y="1642"/>
      <point x="978" y="1597" type="curve" smooth="yes"/>
      <point x="97" y="-170" type="line" smooth="yes"/>
      <point x="93" y="-179"/>
      <point x="92" y="-200"/>
    </contour>
  </outline>
</glyph>
<glyph name="trademark" format="1">
  <advance width="3528"/>
  <unicode hex="2122"/>
  <outline>
    <contour>
      <point x="1378" y="532" type="curve" smooth="yes"/>
      <point x="1512" y="532" type="line" smooth="yes"/>
      <point x="1540" y="532"/>
      <point x="1559" y="551"/>
      <point x="1560" y="580" type="curve"/>
      <point x="1612" y="1186" type="line" smooth="yes"/>
      <point x="1612" y="1188"/>
      <point x="1619" y="1191"/>
      <point x="1620" y="1189" type="curve" smooth="yes"/>
      <point x="1963" y="578" type="line" smooth="yes"/>
      <point x="1979" y="550"/>
      <point x="2003" y="533"/>
      <point x="2031" y="532" type="curve" smooth="yes"/>
      <point x="2126" y="532" type="line" smooth="yes"/>
      <point x="2154" y="533"/>
      <point x="2179" y="550"/>
      <point x="2194" y="578" type="curve" smooth="yes"/>
      <point x="2550" y="1195" type="line" smooth="yes"/>
      <point x="2551" y="1197"/>
      <point x="2559" y="1196"/>
      <point x="2559" y="1194" type="curve" smooth="yes"/>
      <point x="2607" y="580" type="line"/>
      <point x="2609" y="551"/>
      <point x="2627" y="532"/>
      <point x="2655" y="532" type="curve" smooth="yes"/>
      <point x="2789" y="532" type="line" smooth="yes"/>
      <point x="2817" y="532"/>
      <point x="2834" y="551"/>
      <point x="2832" y="580" type="curve"/>
      <point x="2767" y="1450" type="line"/>
      <point x="2765" y="1478"/>
      <point x="2749" y="1496"/>
      <point x="2722" y="1497" type="curve" smooth="yes"/>
      <point x="2544" y="1497" type="line" smooth="yes"/>
      <point x="2517" y="1496"/>
      <point x="2492" y="1480"/>
      <point x="2477" y="1452" type="curve" smooth="yes"/>
      <point x="2088" y="774" type="line" smooth="yes"/>
      <point x="2087" y="771"/>
      <point x="2073" y="771"/>
      <point x="2072" y="774" type="curve" smooth="yes"/>
      <point x="1693" y="1452" type="line" smooth="yes"/>
      <point x="1678" y="1480"/>
      <point x="1653" y="1496"/>
      <point x="1626" y="1497" type="curve" smooth="yes"/>
      <point x="1447" y="1497" type="line" smooth="yes"/>
      <point x="1421" y="1496"/>
      <point x="1405" y="1478"/>
      <point x="1403" y="1450" type="curve"/>
      <point x="1335" y="580" type="line"/>
      <point x="1333" y="551"/>
      <point x="1350" y="532"/>
    </contour>
    <contour>
      <point x="618" y="532" type="curve" smooth="yes"/>
      <point x="763" y="532" type="line" smooth="yes"/>
      <point x="791" y="532"/>
      <point x="808" y="551"/>
      <point x="808" y="580" type="curve" smooth="yes"/>
      <point x="808" y="1331" type="line" smooth="yes"/>
      <point x="808" y="1345"/>
      <point x="815" y="1351"/>
      <point x="828" y="1351" type="curve" smooth="yes"/>
      <point x="1183" y="1351" type="line" smooth="yes"/>
      <point x="1211" y="1351"/>
      <point x="1229" y="1373"/>
      <point x="1229" y="1402" type="curve" smooth="yes"/>
      <point x="1229" y="1445" type="line" smooth="yes"/>
      <point x="1229" y="1474"/>
      <point x="1211" y="1497"/>
      <point x="1183" y="1497" type="curve" smooth="yes"/>
      <point x="196" y="1497" type="line" smooth="yes"/>
      <point x="168" y="1497"/>
      <point x="151" y="1474"/>
      <point x="151" y="1445" type="curve" smooth="yes"/>
      <point x="151" y="1402" type="line" smooth="yes"/>
      <point x="151" y="1373"/>
      <point x="168" y="1351"/>
      <point x="196" y="1351" type="curve" smooth="yes"/>
      <point x="553" y="1351" type="line" smooth="yes"/>
      <point x="566" y="1351"/>
      <point x="572" y="1345"/>
      <point x="572" y="1331" type="curve" smooth="yes"/>
      <point x="572" y="580" type="line" smooth="yes"/>
      <point x="572" y="551"/>
      <point x="590" y="532"/>
    </contour>
  </outline>
</glyph>
<glyph name="uniFB02" format="1">
  <advance width="1862"/>
  <unicode hex="FB02"/>
  <outline>
    <contour>
      <point x="440" y="0" type="curve" smooth="yes"/>
      <point x="626" y="0" type="line" smooth="yes"/>
      <point x="669" y="0"/>
      <point x="703" y="34"/>
      <point x="703" y="77" type="curve" smooth="yes"/>
      <point x="703" y="800" type="line" smooth="yes"/>
      <point x="703" y="820"/>
      <point x="706" y="837"/>
      <point x="726" y="837" type="curve" smooth="yes"/>
      <point x="1120" y="837" type="line" smooth="yes"/>
      <point x="1163" y="837"/>
      <point x="1187" y="846"/>
      <point x="1187" y="889" type="curve" smooth="yes"/>
      <point x="1187" y="951" type="line" smooth="yes"/>
      <point x="1187" y="994"/>
      <point x="1163" y="1006"/>
      <point x="1120" y="1006" type="curve" smooth="yes"/>
      <point x="713" y="1006" type="line" smooth="yes"/>
      <point x="705" y="1006"/>
      <point x="703" y="1013"/>
      <point x="703" y="1016" type="curve" smooth="yes"/>
      <point x="703" y="1061" type="line" smooth="yes"/>
      <point x="703" y="1185"/>
      <point x="779" y="1279"/>
      <point x="1063" y="1279" type="curve" smooth="yes"/>
      <point x="1145" y="1279"/>
      <point x="1285" y="1267"/>
      <point x="1370" y="1259" type="curve"/>
      <point x="1370" y="70" type="line" smooth="yes"/>
      <point x="1370" y="27"/>
      <point x="1397" y="0"/>
      <point x="1440" y="0" type="curve" smooth="yes"/>
      <point x="1633" y="0" type="line" smooth="yes"/>
      <point x="1676" y="0"/>
      <point x="1702" y="27"/>
      <point x="1702" y="70" type="curve" smooth="yes"/>
      <point x="1702" y="1338" type="line" smooth="yes"/>
      <point x="1702" y="1381"/>
      <point x="1677" y="1401"/>
      <point x="1633" y="1408" type="curve" smooth="yes"/>
      <point x="1437" y="1448"/>
      <point x="1283" y="1475"/>
      <point x="969" y="1475" type="curve" smooth="yes"/>
      <point x="669" y="1475"/>
      <point x="372" y="1376"/>
      <point x="364" y="1042" type="curve" smooth="yes"/>
      <point x="364" y="1020"/>
      <point x="363" y="1006"/>
      <point x="341" y="1006" type="curve" smooth="yes"/>
      <point x="191" y="1006" type="line" smooth="yes"/>
      <point x="148" y="1006"/>
      <point x="124" y="988"/>
      <point x="124" y="945" type="curve" smooth="yes"/>
      <point x="124" y="889" type="line" smooth="yes"/>
      <point x="124" y="846"/>
      <point x="148" y="837"/>
      <point x="191" y="837" type="curve" smooth="yes"/>
      <point x="343" y="837" type="line" smooth="yes"/>
      <point x="363" y="837"/>
      <point x="363" y="820"/>
      <point x="363" y="800" type="curve" smooth="yes"/>
      <point x="363" y="77" type="line" smooth="yes"/>
      <point x="363" y="34"/>
      <point x="397" y="0"/>
    </contour>
  </outline>
</glyph>
